<svg width="512" height="512" viewBox="0 0 512 512" xmlns="http://www.w3.org/2000/svg">
  <rect width="100%" height="100%" fill="#a03700"></rect>
  <g fill="#ffffff">
    <rect x="150" y="150" width="30" height="30"></rect>
    <rect x="190" y="150" width="30" height="30"></rect>
    <rect x="230" y="150" width="30" height="30"></rect>
    <rect x="270" y="150" width="30" height="30"></rect>
    <rect x="150" y="190" width="30" height="30"></rect>
    <rect x="190" y="190" width="30" height="30"></rect>
    <rect x="230" y="190" width="30" height="30"></rect>
    <rect x="270" y="190" width="30" height="30"></rect>
    <rect x="310" y="190" width="30" height="30"></rect>
    <rect x="150" y="230" width="30" height="30"></rect>
    <rect x="190" y="230" width="30" height="30"></rect>
    <rect x="230" y="230" width="30" height="30"></rect>
    <rect x="270" y="230" width="30" height="30"></rect>
    <rect x="310" y="230" width="30" height="30"></rect>
    <rect x="190" y="270" width="30" height="30"></rect>
    <rect x="230" y="270" width="30" height="30"></rect>
    <rect x="270" y="270" width="30" height="30"></rect>
    <rect x="230" y="310" width="30" height="30"></rect>
  </g>
  <text x="50%" y="420" font-family="Arial, sans-serif" font-size="26" fill="#ffffff" text-anchor="middle" font-weight="bold">
    TEACH CONNECT HUB
  </text>
  <text x="50%" y="455" font-family="Georgia, serif" font-size="18" fill="#ffffff" text-anchor="middle" font-style="italic">
    Educational Transformation
  </text>
</svg>
